<?xml version="1.0" encoding="UTF-8" standalone="no"?>
<!DOCTYPE svg PUBLIC "-//W3C//DTD SVG 1.1//EN"
 "http://www.w3.org/Graphics/SVG/1.1/DTD/svg11.dtd">
<!-- Generated by graphviz version 14.1.2 (20260124.0452)
 -->
<!-- Title: rag_pipeline Pages: 1 -->
<svg width="916pt" height="158pt"
 viewBox="0.00 0.00 916.00 158.00" xmlns="http://www.w3.org/2000/svg" xmlns:xlink="http://www.w3.org/1999/xlink">
<g id="graph0" class="graph" transform="scale(1 1) rotate(0) translate(28.8 129.6)">
<title>rag_pipeline</title>
<!-- open_agenda -->
<g id="node1" class="node">
<title>open_agenda</title>
<path fill="#e6f1fb" stroke="#185fa5" stroke-width="0.8" d="M154.05,-100.8C154.05,-100.8 12,-100.8 12,-100.8 6,-100.8 0,-94.8 0,-88.8 0,-88.8 0,-12 0,-12 0,-6 6,0 12,0 12,0 154.05,0 154.05,0 160.05,0 166.05,-6 166.05,-12 166.05,-12 166.05,-88.8 166.05,-88.8 166.05,-94.8 160.05,-100.8 154.05,-100.8"/>
<text xml:space="preserve" text-anchor="middle" x="83.02" y="-60.55" font-family="Arial" font-size="13.00" fill="#0c447c">Open Agenda</text>
<text xml:space="preserve" text-anchor="middle" x="83.02" y="-30.55" font-family="Arial" font-size="13.00" fill="#0c447c">9,651 events (variable)</text>
</g>
<!-- cleaning -->
<g id="node2" class="node">
<title>cleaning</title>
<path fill="#e6f1fb" stroke="#185fa5" stroke-width="0.8" d="M327.25,-100.8C327.25,-100.8 236.05,-100.8 236.05,-100.8 230.05,-100.8 224.05,-94.8 224.05,-88.8 224.05,-88.8 224.05,-12 224.05,-12 224.05,-6 230.05,0 236.05,0 236.05,0 327.25,0 327.25,0 333.25,0 339.25,-6 339.25,-12 339.25,-12 339.25,-88.8 339.25,-88.8 339.25,-94.8 333.25,-100.8 327.25,-100.8"/>
<text xml:space="preserve" text-anchor="middle" x="281.65" y="-60.55" font-family="Arial" font-size="13.00" fill="#0c447c">Cleaning</text>
<text xml:space="preserve" text-anchor="middle" x="281.65" y="-30.55" font-family="Arial" font-size="13.00" fill="#0c447c">1,740 retained</text>
</g>
<!-- open_agenda&#45;&gt;cleaning -->
<g id="edge1" class="edge">
<title>open_agenda&#45;&gt;cleaning</title>
<path fill="none" stroke="#ba7517" stroke-width="2" d="M166.4,-50.4C166.4,-50.4 213.38,-50.4 213.38,-50.4"/>
<polygon fill="#ba7517" stroke="#ba7517" stroke-width="2" points="221.38,-50.4 213.38,-54 219.81,-50.9 213.38,-50.9 213.38,-50.4 213.38,-49.9 219.81,-49.9 213.38,-46.8 221.38,-50.4"/>
</g>
<!-- embedding -->
<g id="node3" class="node">
<title>embedding</title>
<path fill="#e1f5ee" stroke="#0f6e56" stroke-width="0.8" d="M500.45,-100.8C500.45,-100.8 409.25,-100.8 409.25,-100.8 403.25,-100.8 397.25,-94.8 397.25,-88.8 397.25,-88.8 397.25,-12 397.25,-12 397.25,-6 403.25,0 409.25,0 409.25,0 500.45,0 500.45,0 506.45,0 512.45,-6 512.45,-12 512.45,-12 512.45,-88.8 512.45,-88.8 512.45,-94.8 506.45,-100.8 500.45,-100.8"/>
<text xml:space="preserve" text-anchor="middle" x="454.85" y="-60.55" font-family="Arial" font-size="13.00" fill="#085041">Embedding</text>
<text xml:space="preserve" text-anchor="middle" x="454.85" y="-30.55" font-family="Arial" font-size="13.00" fill="#085041">mistral&#45;embed</text>
</g>
<!-- cleaning&#45;&gt;embedding -->
<g id="edge2" class="edge">
<title>cleaning&#45;&gt;embedding</title>
<path fill="none" stroke="#ba7517" stroke-width="2" d="M339.32,-50.4C339.32,-50.4 386.7,-50.4 386.7,-50.4"/>
<polygon fill="#ba7517" stroke="#ba7517" stroke-width="2" points="394.7,-50.4 386.7,-54 393.13,-50.9 386.7,-50.9 386.7,-50.4 386.7,-49.9 393.13,-49.9 386.7,-46.8 394.7,-50.4"/>
</g>
<!-- faiss -->
<g id="node4" class="node">
<title>faiss</title>
<path fill="#e6f1fb" stroke="#185fa5" stroke-width="0.8" d="M673.65,-100.8C673.65,-100.8 582.45,-100.8 582.45,-100.8 576.45,-100.8 570.45,-94.8 570.45,-88.8 570.45,-88.8 570.45,-12 570.45,-12 570.45,-6 576.45,0 582.45,0 582.45,0 673.65,0 673.65,0 679.65,0 685.65,-6 685.65,-12 685.65,-12 685.65,-88.8 685.65,-88.8 685.65,-94.8 679.65,-100.8 673.65,-100.8"/>
<text xml:space="preserve" text-anchor="middle" x="628.05" y="-60.55" font-family="Arial" font-size="13.00" fill="#0c447c">FAISS index</text>
<text xml:space="preserve" text-anchor="middle" x="628.05" y="-30.55" font-family="Arial" font-size="13.00" fill="#0c447c">1,024 dims</text>
</g>
<!-- embedding&#45;&gt;faiss -->
<g id="edge3" class="edge">
<title>embedding&#45;&gt;faiss</title>
<path fill="none" stroke="#ba7517" stroke-width="2" d="M512.52,-50.4C512.52,-50.4 559.9,-50.4 559.9,-50.4"/>
<polygon fill="#ba7517" stroke="#ba7517" stroke-width="2" points="567.9,-50.4 559.9,-54 566.33,-50.9 559.9,-50.9 559.9,-50.4 559.9,-49.9 566.33,-49.9 559.9,-46.8 567.9,-50.4"/>
</g>
<!-- mistral -->
<g id="node5" class="node">
<title>mistral</title>
<path fill="#e6f1fb" stroke="#185fa5" stroke-width="0.8" d="M846.85,-100.8C846.85,-100.8 755.65,-100.8 755.65,-100.8 749.65,-100.8 743.65,-94.8 743.65,-88.8 743.65,-88.8 743.65,-12 743.65,-12 743.65,-6 749.65,0 755.65,0 755.65,0 846.85,0 846.85,0 852.85,0 858.85,-6 858.85,-12 858.85,-12 858.85,-88.8 858.85,-88.8 858.85,-94.8 852.85,-100.8 846.85,-100.8"/>
<text xml:space="preserve" text-anchor="middle" x="801.25" y="-60.55" font-family="Arial" font-size="13.00" fill="#0c447c">Mistral LLM</text>
<text xml:space="preserve" text-anchor="middle" x="801.25" y="-30.55" font-family="Arial" font-size="13.00" fill="#0c447c">Generation</text>
</g>
<!-- faiss&#45;&gt;mistral -->
<g id="edge4" class="edge">
<title>faiss&#45;&gt;mistral</title>
<path fill="none" stroke="#ba7517" stroke-width="2" d="M685.72,-50.4C685.72,-50.4 733.1,-50.4 733.1,-50.4"/>
<polygon fill="#ba7517" stroke="#ba7517" stroke-width="2" points="741.1,-50.4 733.1,-54 739.53,-50.9 733.1,-50.9 733.1,-50.4 733.1,-49.9 739.53,-49.9 733.1,-46.8 741.1,-50.4"/>
</g>
</g>
</svg>
